:version 1.10
:name ASF
:units
  mass 1
  length 1
  angle deg
:documentation
  ASF file generated by Kaydara
:root
  axis xyz
  order  tx ty tz rx ry rz
  position 0 0 0
  orientation 0 0 0
:bonedata
  begin
    id 1
    name RightUpLegDummy
    direction -0.718183 -0.695806 0.00816078
    length 4.904
    axis 0 0 0 xyz
  end
  begin
    id 2
    name RightUpLeg
    direction 3.53989e-006 -0.995788 0.0916897
    length 17.4976
    axis -3.49089 -0.000906621 0.000287158 xyz
    dof rx ry rz
  end
  begin
    id 3
    name RightLeg
    direction 0.00371093 -0.995096 -0.0988418
    length 16.5821
    axis 3.68512 0.0193738 -0.131023 xyz
    dof rx ry rz
  end
  begin
    id 4
    name RightFoot
    direction 0.000791514 -0.46099 0.887405
    length 3.77069
    axis 4.84075e-005 -0.120479 -0.188788 xyz
    dof rx ry rz
  end
  begin
    id 5
    name RightToes
    direction 0.00124746 -0.014064 0.9999
    length 3.85082
    axis 0.00048216 0.542163 -0.142577 xyz
    dof rx ry rz
  end
  begin
    id 6
    name SpineDummy
    direction 8.3039e-015 1 4.57515e-016
    length 4.6813
    axis 0 0 0 xyz
  end
  begin
    id 7
    name Spine
    direction -4.63632e-008 0.999988 0.00495137
    length 10.1015
    axis -0.00138897 0.000121419 3.25764e-006 xyz
    dof rx ry rz
  end
  begin
    id 8
    name Spine1
    direction 0 0 0
    length 0
    axis -0.00138896 0.000121452 2.39764e-006 xyz
    dof rx ry rz
  end
  begin
    id 9
    name HEadDummy
    direction -3.91456e-008 0.999999 0.00127422
    length 3.43865
    axis -0.00138896 0.000121452 2.39764e-006 xyz
  end
  begin
    id 10
    name HEad
    direction -0.0222688 0.980941 0.193023
    length 5.12695
    axis -0.00138895 0.000121452 2.39764e-006 xyz
    dof rx ry rz
  end
  begin
    id 11
    name LeftShoulder1Dummy
    direction 0.998891 -0.0402508 -0.0244456
    length 3.5433
    axis -0.00138896 0.000121452 2.39764e-006 xyz
  end
  begin
    id 12
    name LeftShoulder1
    direction 0.99951 -0.000327743 0.0313091
    length 4.05031
    axis -0.00138896 0.000121452 2.39764e-006 xyz
    dof rx ry rz
  end
  begin
    id 13
    name LeftArm
    direction 0.998561 -0.00100054 -0.0536182
    length 10.3537
    axis -23.1894 0.134784 0.96751 xyz
    dof rx ry rz
  end
  begin
    id 14
    name LeftForeArm
    direction 0.998903 0.00866434 0.046012
    length 8.70632
    axis -9.91835 -0.06569 -0.177792 xyz
    dof rx ry rz
  end
  begin
    id 15
    name LeftHand
    direction 0.992938 -0.0411636 0.11126
    length 5.32135
    axis -0.00960227 -0.00340091 0.185174 xyz
    dof rx ry rz
  end
  begin
    id 16
    name RightShoulderDummy
    direction -0.998891 -0.0402509 -0.0244414
    length 3.5433
    axis -0.00138896 0.000121452 2.39764e-006 xyz
  end
  begin
    id 17
    name RightShoulder
    direction -0.99951 -0.000327827 0.0313133
    length 4.05031
    axis 0.215806 0.000203644 -0.00680151 xyz
    dof rx ry rz
  end
  begin
    id 18
    name RightArm
    direction -0.998573 -0.000999583 -0.053403
    length 10.3947
    axis -23.2009 -0.134239 -0.9641 xyz
    dof rx ry rz
  end
  begin
    id 19
    name RightForeArm
    direction -0.998898 0.00868026 0.0461306
    length 8.68355
    axis -9.92322 0.0658061 0.178869 xyz
    dof rx ry rz
  end
  begin
    id 20
    name RightHand
    direction -0.992843 -0.0414603 0.112003
    length 5.28593
    axis -0.00960634 0.00330671 -0.185226 xyz
    dof rx ry rz
  end
  begin
    id 21
    name LeftUpLegDummy
    direction 0.718183 -0.695806 0.00816078
    length 4.904
    axis 0 0 0 xyz
  end
  begin
    id 22
    name LeftUpLeg
    direction -6.8115e-006 -0.995793 0.0916336
    length 17.4976
    axis -3.48766 0.00143441 -0.000523914 xyz
    dof rx ry rz
  end
  begin
    id 23
    name LeftLeg
    direction -0.00601357 -0.995091 -0.0987824
    length 16.5821
    axis 3.68177 -0.00654038 -0.00028478 xyz
    dof rx ry rz
  end
  begin
    id 24
    name LeftFoot
    direction -0.00417578 -0.460984 0.887399
    length 3.77069
    axis 1.87232e-006 4.66002e-005 -8.1837e-006 xyz
    dof rx ry rz
  end
  begin
    id 25
    name LeftToes
    direction 0.00818058 -0.00485161 0.999955
    length 3.85048
    axis 1.06246e-005 4.65855e-005 -8.18502e-006 xyz
    dof rx ry rz
  end
:hierarchy
  begin
    root RightUpLegDummy SpineDummy LeftUpLegDummy
    RightUpLegDummy RightUpLeg
    RightUpLeg RightLeg
    RightLeg RightFoot
    RightFoot RightToes
    SpineDummy Spine
    Spine Spine1
    Spine1 HEadDummy LeftShoulder1Dummy RightShoulderDummy
    HEadDummy HEad
    LeftShoulder1Dummy LeftShoulder1
    LeftShoulder1 LeftArm
    LeftArm LeftForeArm
    LeftForeArm LeftHand
    RightShoulderDummy RightShoulder
    RightShoulder RightArm
    RightArm RightForeArm
    RightForeArm RightHand
    LeftUpLegDummy LeftUpLeg
    LeftUpLeg LeftLeg
    LeftLeg LeftFoot
    LeftFoot LeftToes
  end

:SAMPLES-PER-SECOND 30
:FRAME-RANGE 1-3549
:FULLY-SPECIFIED
:DEGREES
1
root  55.3288 39.7521 16.2785 179.377 -84.0646 -172.8
RightUpLeg  -18.4194 0.265132 -4.71433
RightLeg  7.61281 -1.8642 -1.56251
RightFoot  4.68362 -1.15529 8.42147
RightToes  1.218e-010 1.26228e-014 -6.01869e-014
Spine  -10.1096 -0.643959 -2.21993
Spine1  12.3806 0.589469 -3.62623
HEad  16.2935 6.07524 -1.41651
LeftShoulder1  2.15165 -3.69454 -24.8112
LeftArm  -0.72144 -1.86235 -49.4512
LeftForeArm  37.8342 6.01073 -13.3756
LeftHand  0.000905235 5.97374 5.40382
RightShoulder  1.82958 2.0805 28.0157
RightArm  -28.6898 3.09972 54.5885
RightForeArm  73.5454 -4.8062 1.38245
RightHand  0.10427 -6.21572 -16.7656
LeftUpLeg  -6.72008 3.95409 -0.854754
LeftLeg  10.3342 7.31926 1.22647
LeftFoot  -10.259 0.0682126 -0.70098
LeftToes  -1.43952e-010 7.51141e-011 -1.22592e-011
2
root  55.546 39.7219 16.4857 -178.109 -84.6112 -175.7
RightUpLeg  -18.4072 -0.056283 -5.42443
RightLeg  7.81956 -2.01225 -1.57173
RightFoot  4.85129 -1.19606 8.6267
RightToes  1.218e-010 1.26228e-014 -6.01869e-014
Spine  -10.0044 -0.655901 -2.49088
Spine1  12.3462 0.60854 -3.65713
HEad  16.0173 6.05912 -1.71154
LeftShoulder1  2.13312 -3.61717 -24.8905
LeftArm  -0.91488 -1.41135 -48.7698
LeftForeArm  37.7299 7.04624 -13.3577
LeftHand  0.0106369 6.25857 5.14843
RightShoulder  1.8239 2.05632 28.0639
RightArm  -29.177 2.86945 54.3154
RightForeArm  74.1631 -4.73079 1.08534
RightHand  0.119767 -6.31706 -16.8781
LeftUpLeg  -6.85273 3.70579 -1.47097
LeftLeg  10.5707 7.08115 1.12553
LeftFoot  -10.1604 0.0624972 -0.143499
LeftToes  -1.43952e-010 7.51141e-011 -1.22592e-011
3
root  55.7186 39.6927 16.6758 -176.864 -85.0508 -177.51
RightUpLeg  -18.12 -0.171424 -5.9502
RightLeg  8.01498 -2.27406 -1.62559
RightFoot  4.99609 -1.22288 8.74238
RightToes  1.218e-010 1.26228e-014 -6.01869e-014
Spine  -9.80797 -0.624417 -2.52873
Spine1  12.3098 0.655654 -3.75661
HEad  15.9374 5.89525 -1.73788
LeftShoulder1  2.13 -3.60531 -24.8985
LeftArm  -1.26206 -0.695193 -48.2212
LeftForeArm  37.8007 7.77039 -13.3101
LeftHand  0.0172017 6.41603 5.17889
RightShoulder  1.81385 2.00126 28.2313
RightArm  -29.6832 2.69812 53.9142
RightForeArm  74.4212 -4.66741 0.774026
RightHand  0.130999 -6.42013 -16.5272
LeftUpLeg  -6.69407 3.50417 -1.93494
LeftLeg  10.8128 6.85119 1.11848
LeftFoot  -10.2315 0.0597897 0.171692
LeftToes  -1.43952e-010 7.51141e-011 -1.22592e-011
4
root  55.8588 39.661 16.8492 -175.086 -85.4809 -179.815
RightUpLeg  -17.8509 -0.391323 -6.46806
RightLeg  8.2808 -2.45228 -1.6292
RightFoot  5.04726 -1.2607 8.9785
RightToes  1.218e-010 1.26228e-014 -6.01869e-014
Spine  -9.76131 -0.644949 -2.7006
Spine1  12.3916 0.611642 -3.67097
HEad  15.7768 5.78235 -1.68563
LeftShoulder1  2.10142 -3.49753 -24.9693
LeftArm  -1.56766 0.227185 -47.6566
LeftForeArm  37.6341 7.77488 -13.3123
LeftHand  0.0152381 6.45293 5.06106
RightShoulder  1.80878 1.95413 28.4467
RightArm  -30.0286 2.67574 53.4651
RightForeArm  74.7804 -4.61146 0.531453
RightHand  0.14725 -6.50902 -16.8693
LeftUpLeg  -6.56079 3.44844 -2.32241
LeftLeg  11.1708 6.52341 0.955606
LeftFoot  -10.3649 0.0566452 0.659505
LeftToes  -1.43952e-010 7.51141e-011 -1.22592e-011
5
root  55.9728 39.6231 17.0147 -173.455 -85.9686 177.994
RightUpLeg  -17.573 -0.693637 -6.96665
RightLeg  8.71731 -2.52523 -1.58016
RightFoot  4.97417 -1.27326 9.10276
RightToes  1.218e-010 1.26228e-014 -6.01869e-014
Spine  -9.56269 -0.702191 -2.84495
Spine1  12.2959 0.488662 -3.48266
HEad  15.6068 5.62613 -1.45337
LeftShoulder1  2.07046 -3.37063 -25.0979
LeftArm  -1.73916 1.34882 -47.0903
LeftForeArm  37.3137 7.78343 -13.3168
LeftHand  0.0127606 6.37638 4.99264
RightShoulder  1.80357 1.90229 28.6951
RightArm  -30.2911 2.49334 52.9517
RightForeArm  74.7941 -4.58443 0.376062
RightHand  0.159304 -6.61644 -16.587
LeftUpLeg  -6.43323 3.52922 -2.57341
LeftLeg  11.7278 5.97457 0.641062
LeftFoot  -10.7087 0.058152 1.12014
LeftToes  -1.43952e-010 7.51141e-011 -1.22592e-011
6
root  56.064 39.5743 17.1741 -172.212 -86.4169 176.19
RightUpLeg  -17.3243 -1.10135 -7.41126
RightLeg  9.28981 -2.42574 -1.44645
RightFoot  4.78297 -1.28409 9.26652
RightToes  1.218e-010 1.26228e-014 -6.01869e-014
Spine  -9.31609 -0.715118 -2.8547
Spine1  12.2173 0.411794 -3.34101
HEad  15.0846 5.3061 -1.18648
LeftShoulder1  2.04645 -3.27357 -25.1943
LeftArm  -1.86591 2.53472 -46.6658
LeftForeArm  37.0587 7.79273 -13.2744
LeftHand  0.0116326 6.31423 5.01611
RightShoulder  1.7787 1.79366 28.949
RightArm  -30.4356 2.31605 52.4637
RightForeArm  74.6869 -4.57557 0.298304
RightHand  0.161703 -6.62815 -16.6488
LeftUpLeg  -6.41405 3.11924 -3.0566
LeftLeg  12.6157 5.94032 1.01918
LeftFoot  -11.3014 0.0674332 1.30811
LeftToes  -1.43952e-010 7.51141e-011 -1.22592e-011
7
root  56.1203 39.5192 17.3218 -173.751 -86.6734 177.103
RightUpLeg  -17.0021 -1.33248 -7.64089
RightLeg  9.90846 -2.39561 -1.35379
RightFoot  4.54967 -1.29221 9.42184
RightToes  1.218e-010 1.26228e-014 -6.01869e-014
Spine  -9.09068 -0.617314 -2.6414
Spine1  12.3068 0.424368 -3.19159
HEad  14.1739 4.76477 -0.940751
LeftShoulder1  1.98335 -3.06019 -25.2469
LeftArm  -2.06431 3.66702 -46.4386
LeftForeArm  36.8642 7.80026 -13.1678
LeftHand  0.00886997 6.26656 4.91089
RightShoulder  1.77698 1.76428 29.1211
RightArm  -30.2289 2.04773 52.0137
RightForeArm  74.2307 -4.62326 0.468808
RightHand  0.144568 -6.48741 -16.9083
LeftUpLeg  -6.30497 3.1965 -3.18791
LeftLeg  13.6282 5.62167 1.0577
LeftFoot  -12.0625 0.0813401 1.41292
LeftToes  -1.43952e-010 7.51141e-011 -1.22592e-011
8
root  56.1268 39.4763 17.462 -175.977 -86.8394 178.728
RightUpLeg  -16.5374 -1.09625 -7.84616
RightLeg  10.3324 -2.64258 -1.41987
RightFoot  4.31023 -1.30523 9.69055
RightToes  1.218e-010 1.26228e-014 -6.01869e-014
Spine  -9.07106 -0.516108 -2.39885
Spine1  12.6115 0.455175 -3.08273
HEad  13.134 4.14622 -0.736904
LeftShoulder1  1.92139 -2.85886 -25.2588
LeftArm  -2.30947 4.82851 -46.3025
LeftForeArm  36.3804 7.80776 -13.0345
LeftHand  0.0062113 6.15533 5.04327
RightShoulder  1.78074 1.72073 29.3701
RightArm  -29.9935 1.99317 51.569
RightForeArm  73.7114 -4.67306 0.637404
RightHand  0.149657 -6.54368 -16.6418
LeftUpLeg  -6.04511 2.86937 -3.49571
LeftLeg  14.4902 5.77088 1.55056
LeftFoot  -12.8334 0.0967278 1.50995
LeftToes  -1.43952e-010 7.51141e-011 -1.22592e-011
9
root  56.0863 39.4411 17.5859 -178.81 -86.8777 -178.86
RightUpLeg  -16.1909 -0.74945 -7.97109
RightLeg  10.713 -2.88971 -1.49326
RightFoot  4.04932 -1.30672 9.85389
RightToes  1.218e-010 1.26228e-014 -6.01869e-014
Spine  -9.28627 -0.404464 -2.19934
Spine1  12.8675 0.494268 -2.92474
HEad  12.3002 3.63061 -0.463501
LeftShoulder1  1.8559 -2.65996 -25.1964
LeftArm  -2.48873 6.05565 -46.2992
LeftForeArm  36.0667 7.72907 -12.9394
LeftHand  0.0018701 6.05456 5.05274
RightShoulder  1.7819 1.70387 29.6542
RightArm  -29.8117 1.94073 51.1519
RightForeArm  73.4795 -4.70376 0.76276
RightHand  0.134314 -6.43102 -16.7007
LeftUpLeg  -5.78694 2.59083 -3.68898
LeftLeg  15.0729 5.99888 1.92623
LeftFoot  -13.3666 0.105497 1.42798
LeftToes  -1.43952e-010 7.51141e-011 -1.22592e-011
10
root  56.0054 39.4233 17.694 177.657 -86.8074 -175.659
RightUpLeg  -15.7781 -0.53285 -7.97442
RightLeg  10.8409 -2.95121 -1.52043
RightFoot  3.86616 -1.30495 9.95094
RightToes  1.218e-010 1.26228e-014 -6.01869e-014
Spine  -9.45258 -0.312022 -2.02746
Spine1  12.9172 0.509 -2.76708
HEad  11.5983 3.30371 -0.154595
LeftShoulder1  1.81172 -2.52328 -25.1659
LeftArm  -2.49347 7.3262 -46.2692
LeftForeArm  35.9213 7.44988 -12.9524
LeftHand  0.00317337 6.08336 5.07834
RightShoulder  1.7696 1.63603 29.8972
RightArm  -29.7873 1.99563 50.9178
RightForeArm  73.4286 -4.70707 0.77012
RightHand  0.143394 -6.44379 -17.3988
LeftUpLeg  -5.42408 2.56593 -3.71737
LeftLeg  15.3784 6.15135 2.08549
LeftFoot  -13.6761 0.115157 1.6214
LeftToes  -1.43952e-010 7.51141e-011 -1.22592e-011
11
root  55.8881 39.4106 17.795 174.735 -86.6924 -172.92
RightUpLeg  -15.4614 -0.545901 -7.96565
RightLeg  10.9345 -2.80707 -1.47711
RightFoot  3.70307 -1.29907 10.0069
RightToes  1.218e-010 1.26228e-014 -6.01869e-014
Spine  -9.76635 -0.277489 -1.92011
Spine1  13.0106 0.470069 -2.59432
HEad  10.9834 3.26608 0.138128
LeftShoulder1  1.76121 -2.37778 -25.0677
LeftArm  -2.69141 8.57105 -46.4095
LeftForeArm  36.3853 7.30095 -12.8834
LeftHand  -0.0161291 5.65256 4.35015
RightShoulder  1.75574 1.58318 30.0015
RightArm  -29.7683 2.20534 50.8973
RightForeArm  73.0738 -4.72154 0.77106
RightHand  0.144174 -6.46087 -17.2329
LeftUpLeg  -5.09105 2.46056 -3.77469
LeftLeg  15.4451 6.40878 2.26654
LeftFoot  -13.6798 0.117822 1.74809
LeftToes  -1.43952e-010 7.51141e-011 -1.22592e-011
12
root  55.7444 39.4025 17.8872 173.62 -86.5446 -171.925
RightUpLeg  -15.1451 -0.674215 -8.04889
RightLeg  10.9796 -2.48065 -1.37756
RightFoot  3.41689 -1.31945 10.3434
RightToes  1.218e-010 1.26228e-014 -6.01869e-014
Spine  -9.98139 -0.256429 -1.95412
Spine1  12.9817 0.441157 -2.47044
HEad  10.5084 3.36625 0.488889
LeftShoulder1  1.75695 -2.37521 -25.0039
LeftArm  -2.85522 9.77136 -46.5104
LeftForeArm  36.3946 7.18215 -12.8465
LeftHand  -0.00863958 5.83995 4.62165
RightShoulder  1.74368 1.53843 30.0846
RightArm  -29.7711 2.40104 51.0041
RightForeArm  72.9659 -4.72325 0.75553
RightHand  0.141267 -6.43673 -17.2944
LeftUpLeg  -4.69672 2.54924 -3.84532
LeftLeg  15.3459 6.56652 2.27088
LeftFoot  -13.6273 0.124785 2.15212
LeftToes  -1.43952e-010 7.51141e-011 -1.22592e-011
